<svg 
    width="auto" xmlns="http://www.w3.org/2000/svg" xmlns:xlink="http://www.w3.org/1999/xlink">
    <linearGradient id="SVGID_1_" gradientUnits="userSpaceOnUse" x1="256" x2="256" y1="512" y2="0">
        <stop offset="0" stop-color="#fd5900" />
        <stop offset="1" stop-color="#ffde00" />
    </linearGradient>
    <g>
        <g>
            <path
                d="m440.09 39.479c-52.639-52.639-138.28-52.639-190.919 0-40.738 40.739-50.868 102.431-26.371 153.651l-185.973 187.194c-5.863 5.863-5.863 15.351 0 21.213l106.066 106.066c5.863 5.863 15.351 5.863 21.213 0l42.426-42.426c5.863-5.863 5.863-15.351 0-21.213l-53.032-53.033 21.213-21.213 31.82 31.82c5.863 5.862 15.351 5.862 21.213 0l42.426-42.427c5.863-5.862 5.863-15.351 0-21.213l-31.82-31.82 48.087-49.308c51.22 24.497 112.913 14.366 153.651-26.372 52.639-52.639 52.639-138.279 0-190.919zm-21.213 169.706c-33.86 33.86-86.334 40.531-127.59 16.221-5.883-3.48-13.383-2.527-18.22 2.31l-66.534 67.755c-5.863 5.863-5.863 15.351 0 21.213l31.82 31.82-21.213 21.213-31.82-31.82c-5.863-5.863-15.351-5.863-21.213 0l-42.426 42.426c-5.863 5.863-5.863 15.351 0 21.213l53.033 53.033-21.214 21.214-84.853-84.853 183.207-184.428c4.837-4.837 5.79-12.336 2.31-18.22-24.31-41.256-17.64-93.729 16.221-127.59 40.935-40.935 107.557-40.935 148.492 0s40.935 107.558 0 148.493zm-21.213-127.279c-29.241-29.241-76.825-29.241-106.066 0s-29.241 76.826 0 106.066c29.241 29.241 76.825 29.241 106.066 0 29.24-29.241 29.24-76.826 0-106.066zm-21.214 84.853c-17.546 17.546-46.093 17.546-63.64 0-17.546-17.546-17.546-46.093 0-63.64 17.547-17.546 46.093-17.546 63.64 0s17.547 46.093 0 63.64z"
                fill="url(#SVGID_1_)" />
        </g>
    </g>
</svg>