<?xml version="1.0" encoding="UTF-8" standalone="no"?>
<svg
   id="Capa_1"
   width="auto"
   height="auto"
   viewBox="0 0 480 480"
   version="1.1"
   sodipodi:docname="splash.svg"
   inkscape:version="1.2 (dc2aedaf03, 2022-05-15)"
   xmlns:inkscape="http://www.inkscape.org/namespaces/inkscape"
   xmlns:sodipodi="http://sodipodi.sourceforge.net/DTD/sodipodi-0.dtd"
   xmlns="http://www.w3.org/2000/svg"
   xmlns:svg="http://www.w3.org/2000/svg">
  <defs
     id="defs16">
    <linearGradient
       id="linearGradient235"
       gradientUnits="userSpaceOnUse"
       x1="256"
       x2="256"
       y1="512"
       y2="0">
      <stop
         offset="0"
         stop-color="#fd5900"
         id="stop2-9" />
      <stop
         offset="1"
         stop-color="#ffde00"
         id="stop4-5" />
    </linearGradient>
  </defs>
  <sodipodi:namedview
     id="namedview14"
     pagecolor="#ffffff"
     bordercolor="#000000"
     borderopacity="0.25"
     inkscape:showpageshadow="2"
     inkscape:pageopacity="0.0"
     inkscape:pagecheckerboard="0"
     inkscape:deskcolor="#d1d1d1"
     showgrid="false"
     inkscape:zoom="0.49166667"
     inkscape:cx="240"
     inkscape:cy="240"
     inkscape:window-width="1920"
     inkscape:window-height="1137"
     inkscape:window-x="1912"
     inkscape:window-y="-8"
     inkscape:window-maximized="1"
     inkscape:current-layer="Capa_1" />
  <linearGradient
     id="SVGID_1_"
     gradientUnits="userSpaceOnUse"
     x1="256"
     x2="256"
     y1="512"
     y2="0">
    <stop
       offset="0"
       stop-color="#fd5900"
       id="stop2" />
    <stop
       offset="1"
       stop-color="#ffde00"
       id="stop4" />
  </linearGradient>
  <g
     id="g11"
     transform="matrix(0.4758761,0,0,0.47499953,118.17596,112.29842)">
    <g
       id="g9">
      <path
         d="M 440.09,39.479 C 387.451,-13.16 301.81,-13.16 249.171,39.479 208.433,80.218 198.303,141.91 222.8,193.13 L 36.827,380.324 c -5.863,5.863 -5.863,15.351 0,21.213 l 106.066,106.066 c 5.863,5.863 15.351,5.863 21.213,0 l 42.426,-42.426 c 5.863,-5.863 5.863,-15.351 0,-21.213 l -53.032,-53.033 21.213,-21.213 31.82,31.82 c 5.863,5.862 15.351,5.862 21.213,0 l 42.426,-42.427 c 5.863,-5.862 5.863,-15.351 0,-21.213 l -31.82,-31.82 48.087,-49.308 c 51.22,24.497 112.913,14.366 153.651,-26.372 52.639,-52.639 52.639,-138.279 0,-190.919 z m -21.213,169.706 c -33.86,33.86 -86.334,40.531 -127.59,16.221 -5.883,-3.48 -13.383,-2.527 -18.22,2.31 l -66.534,67.755 c -5.863,5.863 -5.863,15.351 0,21.213 l 31.82,31.82 -21.213,21.213 -31.82,-31.82 c -5.863,-5.863 -15.351,-5.863 -21.213,0 l -42.426,42.426 c -5.863,5.863 -5.863,15.351 0,21.213 L 174.714,454.569 153.5,475.783 68.647,390.93 251.854,206.502 c 4.837,-4.837 5.79,-12.336 2.31,-18.22 -24.31,-41.256 -17.64,-93.729 16.221,-127.59 40.935,-40.935 107.557,-40.935 148.492,0 40.935,40.935 40.935,107.558 0,148.493 z M 397.664,81.906 c -29.241,-29.241 -76.825,-29.241 -106.066,0 -29.241,29.241 -29.241,76.826 0,106.066 29.241,29.241 76.825,29.241 106.066,0 29.24,-29.241 29.24,-76.826 0,-106.066 z m -21.214,84.853 c -17.546,17.546 -46.093,17.546 -63.64,0 -17.546,-17.546 -17.546,-46.093 0,-63.64 17.547,-17.546 46.093,-17.546 63.64,0 17.547,17.546 17.547,46.093 0,63.64 z"
         fill="url(#SVGID_1_)"
         id="path7"
         style="fill:url(#SVGID_1_)" />
    </g>
  </g>
</svg>
